<?xml version="1.0" encoding="utf-8"?>
<!-- Generator: Adobe Illustrator 26.1.0, SVG Export Plug-In . SVG Version: 6.00 Build 0)  -->
<svg version="1.1" id="Layer_1" xmlns="http://www.w3.org/2000/svg" xmlns:xlink="http://www.w3.org/1999/xlink" x="0px" y="0px"
	 viewBox="0 0 297.7 277.8" style="enable-background:new 0 0 297.7 277.8;" xml:space="preserve">
<style type="text/css">
	.st0{fill:#1D2228;}
	.st1{fill:url(#XMLID_00000047057771767077352590000009845793089677235882_);}
	.st2{fill:url(#XMLID_00000097465297918047867960000001497788598200259218_);}
	.st3{fill:none;stroke:#1D2228;stroke-width:16;stroke-linecap:round;stroke-miterlimit:10;}
	.st4{fill:none;stroke:#1D2228;stroke-width:16;stroke-miterlimit:10;}
	.st5{fill:#ED1C24;}
	.st6{fill:url(#XMLID_00000044877973136076205310000010914501519159310472_);}
</style>
<path class="st0" d="M291.7,228.4c-2,5.2-8.3,19.7-24.1,26.7c-9.4,4.2-17.8,4.7-17.8,4.7v-125c6.5,0,12.9,0,19.4,0
	c1.9,18.7,6.8,31.4,11,39.6c5.4,10.6,7.2,15.2,11,25.3C293.9,207.2,293,225.1,291.7,228.4z"/>
<g id="XMLID_35_">
	
		<linearGradient id="XMLID_00000062910781118457269870000011763531812651348371_" gradientUnits="userSpaceOnUse" x1="148.8" y1="-482.8" x2="148.8" y2="-308.8" gradientTransform="matrix(1 0 0 -1 0 -208)">
		<stop  offset="0" style="stop-color:#E6E6E6"/>
		<stop  offset="1" style="stop-color:#A8A8A8"/>
	</linearGradient>
	<path id="XMLID_37_" style="fill:url(#XMLID_00000062910781118457269870000011763531812651348371_);" d="M249.8,121.1v122.3v11.7
		c0,11.1-9,19.7-20,19.7h-162c-11,0-20-8.6-20-19.7v-134c0-11,9-20.3,20-20.3h162C240.9,100.8,249.8,110.1,249.8,121.1z"/>
	
		<linearGradient id="XMLID_00000124142715583498193850000000134006583198496910_" gradientUnits="userSpaceOnUse" x1="148.9" y1="-362.8" x2="148.9" y2="-233.95" gradientTransform="matrix(1 0 0 -1 0 -208)">
		<stop  offset="0" style="stop-color:#0071BC;stop-opacity:0.2"/>
		<stop  offset="0.3692" style="stop-color:#F15A24"/>
	</linearGradient>
	<path id="XMLID_36_" style="fill:url(#XMLID_00000124142715583498193850000000134006583198496910_);" d="M257.4,133.8h-7.5v21h-202
		v-21h-7.5l7.5-7.6l24.9-25.1l0.3-0.3L146.3,27c1.4-1.4,3.6-1.4,5,0l73.3,73.8l0.3,0.3l24.9,25.1L257.4,133.8z"/>
</g>
<path id="XMLID_00000136390837312707604370000004983402321918074255_" class="st0" d="M124.5,155c0,17.8-9.3,28.8-20.9,28.8
	s-20.9-11-20.9-28.8"/>
<path id="XMLID_00000102545752895651565270000010388686746036353173_" class="st0" d="M215.5,155c0,17.8-9.3,28.8-20.9,28.8
	s-20.9-10.9-20.9-28.8"/>
<g id="XMLID_29_">
	<g id="XMLID_31_">
		<path id="XMLID_00000119799438124590467960000008172235268508364210_" class="st3" d="M176.5,246.8c-15.1,0-27.3-12.5-27.3-28
			c0,15.5-12.7,28-27.7,28"/>
	</g>
	<line id="XMLID_30_" class="st4" x1="149.1" y1="196.5" x2="149.3" y2="219.8"/>
</g>
<ellipse id="XMLID_28_" class="st5" cx="149.1" cy="193" rx="18.7" ry="19.2"/>
<linearGradient id="XMLID_00000111874611000577780350000012911272753451886271_" gradientUnits="userSpaceOnUse" x1="148.8" y1="-342.8" x2="148.8" y2="-210.9622" gradientTransform="matrix(1 0 0 -1 0 -208)">
	<stop  offset="0" style="stop-color:#ED1C24"/>
	<stop  offset="0.7921" style="stop-color:#F15A24"/>
</linearGradient>
<path id="XMLID_27_" style="fill:url(#XMLID_00000111874611000577780350000012911272753451886271_);" d="M290.5,134.8H7.1
	c-3.7,0-5.5-3.6-2.9-5.9L145.9,4c1.6-1.4,4.2-1.4,5.8,0.1l141.7,124.8C296,131.1,294.2,134.8,290.5,134.8z"/>
<path class="st0" d="M5.9,228.4c2,5.2,8.3,19.7,24.1,26.7c9.4,4.2,17.8,4.7,17.8,4.7v-125c-6.5,0-12.9,0-19.4,0
	c-1.9,18.7-6.8,31.4-11,39.6c-5.4,10.6-7.2,15.2-11,25.3C3.7,207.2,4.6,225.1,5.9,228.4z"/>
<line class="st3" x1="71.5" y1="155" x2="135.7" y2="155"/>
<line class="st3" x1="162.5" y1="155" x2="226.7" y2="155"/>
</svg>
