<?xml version="1.0" encoding="utf-8"?>
<!-- Generator: Adobe Illustrator 26.1.0, SVG Export Plug-In . SVG Version: 6.00 Build 0)  -->
<svg version="1.1" id="Layer_1" xmlns="http://www.w3.org/2000/svg" xmlns:xlink="http://www.w3.org/1999/xlink" x="0px" y="0px"
	 viewBox="0 0 297.7 277.8" style="enable-background:new 0 0 297.7 277.8;" xml:space="preserve">
<style type="text/css">
	.st0{fill:#1D2228;}
	.st1{fill:url(#XMLID_00000136381801705465387590000016406257048973154481_);}
	.st2{fill:url(#XMLID_00000128480750363094266190000013644550727614864809_);}
	.st3{fill:#1D2228;stroke:#1D2228;stroke-width:16;stroke-miterlimit:10;}
	.st4{fill:#FFFFFF;}
	.st5{fill:url(#XMLID_00000059999221004463509530000017166288102987965612_);}
	.st6{fill:#ED1C24;}
</style>
<path class="st0" d="M291.7,228.4c-2,5.2-8.3,19.7-24.1,26.7c-9.4,4.2-17.8,4.7-17.8,4.7v-125c6.5,0,12.9,0,19.4,0
	c1.9,18.7,6.8,31.4,11,39.6c5.4,10.6,7.2,15.2,11,25.3C293.9,207.2,293,225.1,291.7,228.4z"/>
<g id="XMLID_35_">
	
		<linearGradient id="XMLID_00000131351789239033962520000015007926644053973945_" gradientUnits="userSpaceOnUse" x1="148.8" y1="-482.8" x2="148.8" y2="-308.8" gradientTransform="matrix(1 0 0 -1 0 -208)">
		<stop  offset="0" style="stop-color:#E6E6E6"/>
		<stop  offset="1" style="stop-color:#A8A8A8"/>
	</linearGradient>
	<path id="XMLID_37_" style="fill:url(#XMLID_00000131351789239033962520000015007926644053973945_);" d="M249.8,121.1v122.3v11.7
		c0,11.1-9,19.7-20,19.7h-162c-11,0-20-8.6-20-19.7v-134c0-11,9-20.3,20-20.3h162C240.9,100.8,249.8,110.1,249.8,121.1z"/>
	
		<linearGradient id="XMLID_00000176003500090197267430000017875097523407931791_" gradientUnits="userSpaceOnUse" x1="148.9" y1="-362.8" x2="148.9" y2="-233.95" gradientTransform="matrix(1 0 0 -1 0 -208)">
		<stop  offset="0" style="stop-color:#0071BC;stop-opacity:0.2"/>
		<stop  offset="0.3692" style="stop-color:#F15A24"/>
	</linearGradient>
	<path id="XMLID_36_" style="fill:url(#XMLID_00000176003500090197267430000017875097523407931791_);" d="M257.4,133.8h-7.5v21h-202
		v-21h-7.5l7.5-7.6l24.9-25.1l0.3-0.3L146.3,27c1.4-1.4,3.6-1.4,5,0l73.3,73.8l0.3,0.3l24.9,25.1L257.4,133.8z"/>
</g>
<g>
	<path id="XMLID_33_" class="st3" d="M234.6,157.5c0,19.3-13.6,31.3-30.5,31.3s-30.5-11.8-30.5-31.3s13.6-31.3,30.5-31.3
		S234.6,138.1,234.6,157.5z"/>
	<path class="st4" d="M232.1,173.8l-6.4-1c-0.7-0.1-1.4,0.1-1.9,0.7l-4.4,4.8c-1.2,1.3-3.4,0.7-3.7-1.1l-1.1-6.4
		c-0.1-0.7-0.6-1.3-1.2-1.6l-5.9-2.7c-1.6-0.8-1.7-3.1-0.1-3.9l5.8-3c0.6-0.3,1.1-1,1.2-1.7l0.8-6.4c0.2-1.8,2.4-2.6,3.7-1.3
		l4.6,4.5c0.5,0.5,1.2,0.7,1.9,0.6l6.4-1.2c1.8-0.3,3.2,1.5,2.4,3.1l-2.9,5.8c-0.3,0.6-0.3,1.4,0,2l3.2,5.7
		C235.2,172.2,233.9,174.1,232.1,173.8z"/>
	<path class="st4" d="M205.5,188.5l-3.1-2.4c-0.3-0.3-0.8-0.3-1.2-0.2l-3.7,1.2c-1,0.3-2-0.7-1.6-1.7l1.3-3.7
		c0.1-0.4,0.1-0.9-0.2-1.2l-2.3-3.2c-0.6-0.9,0-2.1,1.1-2.1l3.9,0.1c0.4,0,0.8-0.2,1.1-0.5l2.3-3.1c0.6-0.9,2-0.6,2.3,0.4l1.1,3.8
		c0.1,0.4,0.4,0.7,0.8,0.9l3.7,1.2c1,0.3,1.2,1.7,0.3,2.3l-3.2,2.2c-0.4,0.2-0.6,0.6-0.6,1.1l0,3.9
		C207.7,188.5,206.4,189.1,205.5,188.5z"/>
	<circle class="st4" cx="190.5" cy="146.5" r="13.6"/>
</g>
<g>
	<path id="XMLID_00000140015721385973424900000000110872310321932164_" class="st3" d="M125.4,157.5c0,19.3-13.6,31.3-30.5,31.3
		s-30.5-11.8-30.5-31.3s13.6-31.3,30.5-31.3S125.4,138.1,125.4,157.5z"/>
	<path class="st4" d="M122.9,173.8l-6.4-1c-0.7-0.1-1.4,0.1-1.9,0.7l-4.4,4.8c-1.2,1.3-3.4,0.7-3.7-1.1l-1.1-6.4
		c-0.1-0.7-0.6-1.3-1.2-1.6l-5.9-2.7c-1.6-0.8-1.7-3.1-0.1-3.9l5.8-3c0.6-0.3,1.1-1,1.2-1.7l0.8-6.4c0.2-1.8,2.4-2.6,3.7-1.3
		l4.6,4.5c0.5,0.5,1.2,0.7,1.9,0.6l6.4-1.2c1.8-0.3,3.2,1.5,2.4,3.1l-2.9,5.8c-0.3,0.6-0.3,1.4,0,2l3.2,5.7
		C126,172.2,124.7,174.1,122.9,173.8z"/>
	<path class="st4" d="M96.3,188.5l-3.1-2.4c-0.3-0.3-0.8-0.3-1.2-0.2l-3.7,1.2c-1,0.3-2-0.7-1.6-1.7l1.3-3.7
		c0.1-0.4,0.1-0.9-0.2-1.2l-2.3-3.2c-0.6-0.9,0-2.1,1.1-2.1l3.9,0.1c0.4,0,0.8-0.2,1.1-0.5l2.3-3.1c0.6-0.9,2-0.6,2.3,0.4l1.1,3.8
		c0.1,0.4,0.4,0.7,0.8,0.9l3.7,1.2c1,0.3,1.2,1.7,0.3,2.3l-3.2,2.2c-0.4,0.2-0.6,0.6-0.6,1.1l0,3.9
		C98.4,188.5,97.2,189.1,96.3,188.5z"/>
	<circle class="st4" cx="81.2" cy="146.5" r="13.6"/>
</g>
<linearGradient id="XMLID_00000047749344280619341190000009294401437014265732_" gradientUnits="userSpaceOnUse" x1="148.8" y1="-342.8" x2="148.8" y2="-210.9622" gradientTransform="matrix(1 0 0 -1 0 -208)">
	<stop  offset="0" style="stop-color:#ED1C24"/>
	<stop  offset="0.7921" style="stop-color:#F15A24"/>
</linearGradient>
<path id="XMLID_27_" style="fill:url(#XMLID_00000047749344280619341190000009294401437014265732_);" d="M290.5,134.8H7.1
	c-3.7,0-5.5-3.6-2.9-5.9L145.9,4c1.6-1.4,4.2-1.4,5.8,0.1l141.7,124.8C296,131.1,294.2,134.8,290.5,134.8z"/>
<g id="XMLID_00000053523228188299859320000002019218287044872880_">
	<g id="XMLID_00000182510919385957498220000009655567110534501041_">
		<path class="st0" d="M212.1,211.6c0,19.9-15.8,36-35.3,36c-0.4,0-0.8,0-1.2,0c-6.2,11.6-15.7,25-26.3,25
			c-10.6,0-19.9-13.4-26.1-25c-0.5,0-0.9,0-1.4,0c-19.5,0-35.3-16.1-35.3-36c0-4.4,3.6-8,8-8s8,3.6,8,8c0,9.4,6.3,17.3,14.8,19.4
			c1.5,0.4,3,0.6,4.5,0.6c10.7,0,19.7-9.2,19.7-20h0.1l-0.2-22.2l16-0.1l0.2,23.3h-0.1c0.5,10.6,8.9,19.1,19.3,19.1
			c1.6,0,3.2-0.2,4.7-0.6c8.4-2.2,14.6-10,14.6-19.4c0-4.4,3.6-8,8-8S212.1,207.2,212.1,211.6z"/>
	</g>
</g>
<ellipse id="XMLID_28_" class="st6" cx="149.1" cy="193" rx="18.7" ry="19.2"/>
<path class="st0" d="M5.9,228.4c2,5.2,8.3,19.7,24.1,26.7c9.4,4.2,17.8,4.7,17.8,4.7v-125c-6.5,0-12.9,0-19.4,0
	c-1.9,18.7-6.8,31.4-11,39.6c-5.4,10.6-7.2,15.2-11,25.3C3.7,207.2,4.6,225.1,5.9,228.4z"/>
</svg>
