<?xml version="1.0" encoding="utf-8"?>
<!-- Generator: Adobe Illustrator 26.1.0, SVG Export Plug-In . SVG Version: 6.00 Build 0)  -->
<svg version="1.1" id="Layer_1" xmlns="http://www.w3.org/2000/svg" xmlns:xlink="http://www.w3.org/1999/xlink" x="0px" y="0px"
	 viewBox="0 0 297.7 277.8" style="enable-background:new 0 0 297.7 277.8;" xml:space="preserve">
<style type="text/css">
	.st0{fill:#1D2228;}
	.st1{fill:url(#XMLID_00000116207276092367203260000010899861266911157168_);}
	.st2{fill:url(#XMLID_00000072250160236950954750000000073999926643221665_);}
	.st3{fill:#FFFFFF;stroke:#1D2228;stroke-width:16;stroke-miterlimit:10;}
	.st4{fill:none;stroke:#1D2228;stroke-width:16;stroke-linecap:round;stroke-miterlimit:10;}
	.st5{fill:none;stroke:#1D2228;stroke-width:16;stroke-miterlimit:10;}
	.st6{fill:#ED1C24;}
	.st7{fill:url(#XMLID_00000062902256288852597050000007878402064237116588_);}
</style>
<path class="st0" d="M291.7,228.4c-2,5.2-8.3,19.7-24.1,26.7c-9.4,4.2-17.8,4.7-17.8,4.7v-125c6.5,0,12.9,0,19.4,0
	c1.9,18.7,6.8,31.4,11,39.6c5.4,10.6,7.2,15.2,11,25.3C293.9,207.2,293,225.1,291.7,228.4z"/>
<g id="Layer_3">
	<g id="XMLID_26_">
		<g id="XMLID_35_">
			
				<linearGradient id="XMLID_00000173846011380257571380000013622346669090366612_" gradientUnits="userSpaceOnUse" x1="148.8" y1="-482.8" x2="148.8" y2="-308.8" gradientTransform="matrix(1 0 0 -1 0 -208)">
				<stop  offset="0" style="stop-color:#E6E6E6"/>
				<stop  offset="1" style="stop-color:#A8A8A8"/>
			</linearGradient>
			<path id="XMLID_37_" style="fill:url(#XMLID_00000173846011380257571380000013622346669090366612_);" d="M249.8,121.1v122.3v11.7
				c0,11.1-9,19.7-20,19.7h-162c-11,0-20-8.6-20-19.7v-134c0-11,9-20.3,20-20.3h162C240.9,100.8,249.8,110.1,249.8,121.1z"/>
			
				<linearGradient id="XMLID_00000092440116648607151110000001844105860783945872_" gradientUnits="userSpaceOnUse" x1="148.9" y1="-362.8" x2="148.9" y2="-233.95" gradientTransform="matrix(1 0 0 -1 0 -208)">
				<stop  offset="0" style="stop-color:#0071BC;stop-opacity:0.2"/>
				<stop  offset="0.3692" style="stop-color:#F15A24"/>
			</linearGradient>
			<path id="XMLID_36_" style="fill:url(#XMLID_00000092440116648607151110000001844105860783945872_);" d="M257.4,133.8h-7.5v21
				h-202v-21h-7.5l7.5-7.6l24.9-25.1l0.3-0.3L146.3,27c1.4-1.4,3.6-1.4,5,0l73.3,73.8l0.3,0.3l24.9,25.1L257.4,133.8z"/>
		</g>
		<path class="st3" d="M241.7,178.6c0,11.1-7.8,17.9-17.5,17.9c-8.2,0-15.1-4.9-17-13.2c-1.8,0.3-3.7,0.5-5.6,0.5
			c-15.6,0-28.1-10.9-28.1-28.8s12.5-28.8,28.1-28.8c15.6,0,28.1,11,28.1,28.8c0,2.2-0.2,4.3-0.6,6.3
			C236.5,163.2,241.7,169.5,241.7,178.6z"/>
		<path class="st3" d="M57.3,178.6c0,11.1,7.8,17.9,17.5,17.9c8.2,0,15.1-4.9,17-13.2c1.8,0.3,3.7,0.5,5.6,0.5
			c15.6,0,28.1-10.9,28.1-28.8s-12.5-28.8-28.1-28.8c-15.6,0-28.1,11-28.1,28.8c0,2.2,0.2,4.3,0.6,6.3
			C62.5,163.2,57.3,169.5,57.3,178.6z"/>
		<g id="XMLID_29_">
			<g id="XMLID_31_">
				<path id="XMLID_00000123440599536616614120000002825782900181483424_" class="st4" d="M176.5,246.8c-15.1,0-27.3-12.5-27.3-28
					c0,15.5-12.7,28-27.7,28"/>
			</g>
			<line id="XMLID_30_" class="st5" x1="149.1" y1="196.5" x2="149.3" y2="219.8"/>
		</g>
		<ellipse id="XMLID_28_" class="st6" cx="149.1" cy="193" rx="18.7" ry="19.2"/>
		
			<linearGradient id="XMLID_00000062179533142915076660000010415094012268811934_" gradientUnits="userSpaceOnUse" x1="148.8" y1="-342.8" x2="148.8" y2="-210.9622" gradientTransform="matrix(1 0 0 -1 0 -208)">
			<stop  offset="0" style="stop-color:#ED1C24"/>
			<stop  offset="0.7921" style="stop-color:#F15A24"/>
		</linearGradient>
		<path id="XMLID_27_" style="fill:url(#XMLID_00000062179533142915076660000010415094012268811934_);" d="M290.5,134.8H7.1
			c-3.7,0-5.5-3.6-2.9-5.9L145.9,4c1.6-1.4,4.2-1.4,5.8,0.1l141.7,124.8C296,131.1,294.2,134.8,290.5,134.8z"/>
	</g>
</g>
<path class="st0" d="M5.9,228.4c2,5.2,8.3,19.7,24.1,26.7c9.4,4.2,17.8,4.7,17.8,4.7v-125c-6.5,0-12.9,0-19.4,0
	c-1.9,18.7-6.8,31.4-11,39.6c-5.4,10.6-7.2,15.2-11,25.3C3.7,207.2,4.6,225.1,5.9,228.4z"/>
<line class="st4" x1="234.6" y1="131.1" x2="176.5" y2="109.1"/>
</svg>
