<?xml version="1.0" encoding="utf-8"?>
<!-- Generator: Adobe Illustrator 26.1.0, SVG Export Plug-In . SVG Version: 6.00 Build 0)  -->
<svg version="1.1" id="Layer_1" xmlns="http://www.w3.org/2000/svg" xmlns:xlink="http://www.w3.org/1999/xlink" x="0px" y="0px"
	 viewBox="0 0 297.7 277.8" style="enable-background:new 0 0 297.7 277.8;" xml:space="preserve">
<style type="text/css">
	.st0{opacity:0.53;fill:url(#SVGID_1_);}
	.st1{fill:#1D2228;}
	.st2{fill:url(#SVGID_00000079447677402444812690000017399830420346563466_);}
	.st3{fill:url(#XMLID_00000131356193964444800840000009767523433661243314_);}
	.st4{fill:#ED1C24;}
	.st5{fill:url(#XMLID_00000177464552529576495980000010684707530467999935_);}
	.st6{fill:url(#SVGID_00000173156997779727712020000000095900755154167432_);}
	.st7{enable-background:new    ;}
	.st8{fill:#FFFFFF;}
</style>
<linearGradient id="SVGID_1_" gradientUnits="userSpaceOnUse" x1="135.4579" y1="211.505" x2="135.4579" y2="286.3884" gradientTransform="matrix(0.7071 0.7071 0.7071 -0.7071 -147.7375 317.3729)">
	<stop  offset="0" style="stop-color:#E6E6E6"/>
	<stop  offset="0.9022" style="stop-color:#E4E4E4"/>
	<stop  offset="0.945" style="stop-color:#E2E2E2"/>
	<stop  offset="0.9642" style="stop-color:#DBDBDB"/>
	<stop  offset="0.9787" style="stop-color:#CECECE"/>
	<stop  offset="0.9907" style="stop-color:#BCBCBC"/>
	<stop  offset="1" style="stop-color:#A8A8A8"/>
</linearGradient>
<path class="st0" d="M169.3,229.4l-42.9,42.9c-0.1,0.1-0.3,0.3-0.4,0.4c-6.4,6-14,5.3-28.4-9.1c-15-15-15.1-22.3-8.7-28.8
	c6.1-6.1,20-5,30.2,3.8l27.8-27.8L169.3,229.4z"/>
<g id="XMLID_00000113347572403993831980000003079923496499548824_">
	<g id="XMLID_00000157274798085798823420000016798248642201480880_">
		<path class="st1" d="M268,217.7c-4.4,15-20.1,23.7-34.8,19.3c-7.5-2.2-13.3-7.3-16.6-13.8l10.3-34.8l7.3,2.1l-4.7,16.4h-0.1
			c-1.6,6.5,2,13.1,8.3,15c6.4,1.9,13.3-2,15.3-8.7c1.2-4.2,5.6-6.5,9.8-5.3C266.9,209.2,269.2,213.6,268,217.7z"/>
	</g>
</g>
<linearGradient id="SVGID_00000052782361832729829110000004140579696590924417_" gradientUnits="userSpaceOnUse" x1="151.35" y1="196.3009" x2="151.35" y2="3.7" gradientTransform="matrix(1 0 0 -1 0 280)">
	<stop  offset="0" style="stop-color:#E6E6E6"/>
	<stop  offset="0.9022" style="stop-color:#E4E4E4"/>
</linearGradient>
<path style="fill:url(#SVGID_00000052782361832729829110000004140579696590924417_);" d="M236.1,100.6V213c0,9.3-7.5,16.5-16.8,16.5
	h-20.5l5.7,31.4c0,0.2,0,0.4,0,0.6c-0.3,9.5-6.7,14.8-28.6,14.8c-23,0-28.7-5.5-28.7-15.4c0-9.3,8.6-19.2,23.2-20.3l-2.2-11.1H83.4
	c-9.2,0-16.8-7.2-16.8-16.5v-7.7c5.8,6,13.8,9.7,22.7,9.7c17.6,0,31.9-14.6,31.9-32.5c0-5-4-9-9-9s-9,4-9,9c0,8-6.2,14.5-13.9,14.5
	c-7.4,0-13.5-6.1-13.9-13.7h0.1l-0.2-19.5l-8.7,0.1v-63.2c0-9.2,7.5-17,16.8-17h135.9C228.6,83.6,236.1,91.4,236.1,100.6z"/>
<linearGradient id="XMLID_00000057141989648711886020000018260535642779942797_" gradientUnits="userSpaceOnUse" x1="151.4" y1="816.8" x2="151.4" y2="708.7396" gradientTransform="matrix(1 0 0 1 0 -688)">
	<stop  offset="0" style="stop-color:#0071BC;stop-opacity:0.2"/>
	<stop  offset="0.3692" style="stop-color:#F15A24"/>
</linearGradient>
<path id="XMLID_36_" style="fill:url(#XMLID_00000057141989648711886020000018260535642779942797_);" d="M242.4,111.2h-6.3v17.6
	H66.7v-17.6h-6.3l6.3-6.4l20.9-21.1l0.3-0.3l61.4-61.9c1.2-1.2,3-1.2,4.2,0L215,83.4l0.3,0.3l20.9,21.1L242.4,111.2z"/>
<path id="XMLID_34_" class="st1" d="M131,129c0,14.9-7.8,24.2-17.5,24.2S95.9,144,95.9,129s7.8-24.2,17.5-24.2S131,114.1,131,129z"
	/>
<g id="XMLID_29_">
	<g id="XMLID_31_">
		<path class="st1" d="M121.2,182.5c0,17.9-14.3,32.5-31.9,32.5c-8.9,0-16.9-3.7-22.7-9.7v-41.4l8.7-0.1l0.2,19.5h-0.1
			c0.4,7.6,6.5,13.7,13.9,13.7c7.7,0,13.9-6.5,13.9-14.5c0-5,4-9,9-9C117.2,173.6,121.2,177.6,121.2,182.5z"/>
	</g>
</g>
<ellipse id="XMLID_28_" class="st4" cx="67.5" cy="160.9" rx="15.7" ry="16.1"/>
<path class="st1" d="M222.4,179.7c-1.3,16-13.5,25.5-14.7,26.3c-12.8,9.6-26.9,7.1-29.1,6.7c-1.4-0.3-16.5-3.4-24.7-17.3
	c-6-10.2-5.2-21-5-23.6c0.3-4.1,1.5-10.3,1.8-12c0.6-3.1,1.3-6.3,2.4-10.7c1.9-7.5,1.3-28.6-0.7-44.3l31.7-7.3
	c5.1,14.9,13.7,34.2,18.7,40.2c2.9,3.5,5,6.1,6.8,8.6c0.5,0.7,4.7,6.3,6.9,10.1C217.9,158.6,223.4,167.9,222.4,179.7z"/>
<linearGradient id="XMLID_00000031190197767999393210000017724513092060532872_" gradientUnits="userSpaceOnUse" x1="151.35" y1="800.1" x2="151.35" y2="689.5121" gradientTransform="matrix(1 0 0 1 0 -688)">
	<stop  offset="0" style="stop-color:#ED1C24"/>
	<stop  offset="0.7921" style="stop-color:#F15A24"/>
</linearGradient>
<path id="XMLID_27_" style="fill:url(#XMLID_00000031190197767999393210000017724513092060532872_);" d="M270.2,112.1H32.5
	c-3.1,0-4.6-3-2.4-4.9L148.9,2.4c1.3-1.2,3.5-1.2,4.9,0.1l118.8,104.7C274.8,109,273.3,112.1,270.2,112.1z"/>
<path class="st1" d="M314.5,195"/>
<linearGradient id="SVGID_00000065775049536228173950000005576612154645201565_" gradientUnits="userSpaceOnUse" x1="186.1311" y1="22.3575" x2="186.4497" y2="22.9093" gradientTransform="matrix(1 0 0 -1 0 280)">
	<stop  offset="0" style="stop-color:#E6E6E6"/>
	<stop  offset="1" style="stop-color:#A8A8A8"/>
</linearGradient>
<path style="fill:url(#SVGID_00000065775049536228173950000005576612154645201565_);" d="M186.3,257v0.7l0,0
	C186.3,257.5,186.3,257.3,186.3,257z"/>
<g class="st7">
	<path class="st8" d="M114.6,79.6c0.9,1.9,1.3,3.9,1.2,6.1c-0.5,4.1-2.3,7.3-5.4,9.5c-3.2,2.2-6.7,3.3-10.7,3.5
		c-1,0-1.9-0.2-2.6-0.6c-0.9,0.1-1.8,0-2.6-0.5c-0.8-0.4-1.4-1.2-1.8-2.4c-2.8-8.7-4.9-17.7-6.4-26.7c-0.1-0.7,0-1.3,0.2-1.9
		c0.4-1.5,1.3-2.4,2.7-2.8c2.7-0.8,5.6-1.1,8.7-1.1c3.1,0,5.6,1.3,7.4,3.8c0.7,1.2,1.1,2.5,1.2,4c0.1,1.5,0,2.9-0.2,4.3
		c1.3,0,2.6,0.3,3.8,0.8C112.2,76.3,113.7,77.7,114.6,79.6z M95.7,71.5c0.3,1.6,0.6,3.2,1,4.7c0.7-1.5,1.1-3.1,1-4.8
		c-0.1,0-0.2,0-0.3,0c-0.1,0-0.2,0-0.3,0c-0.1,0-0.2,0-0.4,0c0,0-0.1,0-0.2,0C96.3,71.5,96,71.5,95.7,71.5z M107,84.1
		c0-0.4-0.2-0.6-0.5-0.6c-2,0.1-4,0.5-5.9,1.4c-0.6,0.2-1.1,0.3-1.7,0.3c0.4,1.5,0.9,3,1.3,4.5c1.5-0.1,2.9-0.5,4.2-1.2
		c1.3-0.6,2.2-1.7,2.5-3.2C107,84.9,107,84.5,107,84.1z"/>
	<path class="st8" d="M148.3,99.2c-0.6,1.1-1.4,1.9-2.5,2.3c-1.3,0.4-2.4,0.3-3.4-0.2c-1-0.5-1.8-1.4-2.3-2.5
		c-0.7-1.5-1.4-3-2.1-4.5c-3.7-0.1-7.4-0.2-11.2-0.5c-0.2,0.5-0.4,1-0.6,1.4c-0.5,1.2-1,2.5-1.5,3.7c-0.8,1.7-2,2.5-3.5,2.5
		c-1.5,0-2.8-0.6-3.9-1.8c-1-1.2-1.2-2.7-0.6-4.5c3.9-9.4,7.6-18.9,11.2-28.4c0.9-1.8,2.3-2.6,4.1-2.4c1.9,0.2,3.2,1.1,4,2.9
		c3.6,9.7,7.7,19.3,12.3,28.6C149,97,148.9,98.1,148.3,99.2z M134,85.5c-0.7-1.5-1.3-3-2-4.5c-0.4,0.9-0.7,1.9-1.1,2.9
		c-0.2,0.5-0.4,1-0.6,1.5C131.5,85.4,132.7,85.5,134,85.5z"/>
	<path class="st8" d="M160.8,88.3c0,1.7,0.4,3.4,1.1,5.1c0.7,1.6,2,2.6,3.9,3c1.4,0.2,3,0.2,4.6-0.1c1.6-0.3,2.9-1,3.9-2.2
		c1.2-1.5,2.5-2,4-1.6c1.5,0.4,2.5,1.3,3.2,2.8c0.7,1.4,0.5,3-0.5,4.5c-2,2.5-4.6,4.1-8,5c-3.4,0.9-6.6,0.9-9.6,0.2
		c-3.5-1-6.2-2.9-8.1-5.6c-1.9-2.7-3-5.9-3.2-9.5c-0.2-3.4,0.2-6.7,1.4-9.7c1.2-3.1,3.3-5.6,6.3-7.4c3-1.7,6.2-2.8,9.8-3.2
		c3.6-0.4,7,0.1,10.1,1.5c1.7,0.9,2.5,2.2,2.4,3.7c0,1.6-0.7,2.8-1.8,3.8c-1.2,1-2.7,1.2-4.4,0.4c-1.6-0.7-3.5-1-5.6-0.8
		c-2.1,0.2-4,0.8-5.5,1.7C161.8,81.9,160.5,84.7,160.8,88.3z"/>
	<path class="st8" d="M216,68.6c-0.2,1.2-0.8,2.2-1.8,2.8c-2.8,1.5-5.7,3.1-8.5,4.6c-0.7,0.4-1.4,0.7-2.1,1.1
		c-0.8,0.4-1.6,0.8-2.5,1.3c3.9,3.6,7.8,7.2,11.9,10.7c1.4,1.3,1.8,2.7,1.4,4.2c-0.5,1.5-1.4,2.6-2.8,3.3c-1.4,0.7-2.8,0.4-4.4-0.7
		c-4-3.5-8-7-11.8-10.7l-0.6,7c-0.2,1.2-0.8,2.2-1.8,2.8c-1.1,0.7-2.2,0.9-3.3,0.7c-1.3-0.3-2.2-0.9-2.8-1.9c-0.6-1-0.8-2.1-0.7-3.3
		c0.2-2.8,0.5-5.6,0.7-8.5c0.1-1.4,0.3-2.8,0.4-4.2c0.1-1,0.2-2,0.3-3c0.4-3.1,0.6-6.3,0.5-9.4c0-1.9,0.7-3.2,2.1-4
		c1.4-0.7,2.8-0.9,4.2-0.3c1.5,0.5,2.3,1.7,2.5,3.6c0.1,2,0.1,4-0.1,6.1c2.5-1.5,5.1-2.9,7.8-4.2c1.6-0.8,3.1-1.6,4.6-2.4
		c1.1-0.6,2.2-0.8,3.3-0.7c1.1,0.1,2.1,0.7,2.8,1.8C215.9,66.3,216.1,67.4,216,68.6z"/>
</g>
</svg>
