<?xml version="1.0" encoding="utf-8"?>
<!-- Generator: Adobe Illustrator 26.1.0, SVG Export Plug-In . SVG Version: 6.00 Build 0)  -->
<svg version="1.1" id="Layer_1" xmlns="http://www.w3.org/2000/svg" xmlns:xlink="http://www.w3.org/1999/xlink" x="0px" y="0px"
	 viewBox="0 0 297.7 277.8" style="enable-background:new 0 0 297.7 277.8;" xml:space="preserve">
<style type="text/css">
	.st0{fill:#1D2228;}
	.st1{fill:url(#XMLID_00000008131971501250851860000018109026751337418683_);}
	.st2{fill:url(#XMLID_00000170268921840090359860000013446193380605711511_);}
	.st3{fill:none;stroke:#1D2228;stroke-width:16;stroke-linecap:round;stroke-linejoin:round;stroke-miterlimit:10;}
	.st4{fill:url(#XMLID_00000139268354579868127340000003714995130508352928_);}
	.st5{fill:#ED1C24;}
	.st6{fill:#FF8AC2;}
	.st7{fill:#FFCB3F;}
	.st8{fill:#009143;}
	.st9{fill:#7FBFFF;}
	.st10{fill:#AA7FFF;}
</style>
<path class="st0" d="M291.7,228.4c-2,5.2-8.3,19.7-24.1,26.7c-9.4,4.2-17.8,4.7-17.8,4.7v-125c6.5,0,12.9,0,19.4,0
	c1.9,18.7,6.8,31.4,11,39.6c5.4,10.6,7.2,15.2,11,25.3C293.9,207.2,293,225.1,291.7,228.4z"/>
<g id="Layer_3">
	<g id="XMLID_26_">
		<g id="XMLID_35_">
			
				<linearGradient id="XMLID_00000009575649780548400190000005085064392700558004_" gradientUnits="userSpaceOnUse" x1="148.8" y1="-482.8" x2="148.8" y2="-308.8" gradientTransform="matrix(1 0 0 -1 0 -208)">
				<stop  offset="0" style="stop-color:#E6E6E6"/>
				<stop  offset="1" style="stop-color:#A8A8A8"/>
			</linearGradient>
			<path id="XMLID_37_" style="fill:url(#XMLID_00000009575649780548400190000005085064392700558004_);" d="M249.8,121.1v122.3v11.7
				c0,11.1-9,19.7-20,19.7h-162c-11,0-20-8.6-20-19.7v-134c0-11,9-20.3,20-20.3h162C240.9,100.8,249.8,110.1,249.8,121.1z"/>
			
				<linearGradient id="XMLID_00000159467563371317079360000005966335070835805091_" gradientUnits="userSpaceOnUse" x1="148.9" y1="-362.8" x2="148.9" y2="-233.95" gradientTransform="matrix(1 0 0 -1 0 -208)">
				<stop  offset="0" style="stop-color:#0071BC;stop-opacity:0.2"/>
				<stop  offset="0.3692" style="stop-color:#F15A24"/>
			</linearGradient>
			<path id="XMLID_36_" style="fill:url(#XMLID_00000159467563371317079360000005966335070835805091_);" d="M257.4,133.8h-7.5v21
				h-202v-21h-7.5l7.5-7.6l24.9-25.1l0.3-0.3L146.3,27c1.4-1.4,3.6-1.4,5,0l73.3,73.8l0.3,0.3l24.9,25.1L257.4,133.8z"/>
		</g>
	</g>
</g>
<g>
	<path class="st3" d="M219.1,171.8l-16.4-32.6c-1.8-3.6-4.8-3.6-6.7-0.1l-17.4,32.6"/>
</g>
<g>
	<path class="st3" d="M118.9,172.4l-16.4-32.6c-1.8-3.6-4.8-3.6-6.7-0.1l-17.4,32.6"/>
</g>
<path class="st0" d="M5.9,228.4c2,5.2,8.3,19.7,24.1,26.7c9.4,4.2,17.8,4.7,17.8,4.7v-125c-6.5,0-12.9,0-19.4,0
	c-1.9,18.7-6.8,31.4-11,39.6c-5.4,10.6-7.2,15.2-11,25.3C3.7,207.2,4.6,225.1,5.9,228.4z"/>
<linearGradient id="XMLID_00000002363546426843534350000010697384830313875845_" gradientUnits="userSpaceOnUse" x1="148.8" y1="-342.8" x2="148.8" y2="-210.9622" gradientTransform="matrix(1 0 0 -1 0 -208)">
	<stop  offset="0" style="stop-color:#ED1C24"/>
	<stop  offset="0.7921" style="stop-color:#F15A24"/>
</linearGradient>
<path id="XMLID_27_" style="fill:url(#XMLID_00000002363546426843534350000010697384830313875845_);" d="M290.5,134.8H7.1
	c-3.7,0-5.5-3.6-2.9-5.9L145.9,4c1.6-1.4,4.2-1.4,5.8,0.1l141.7,124.8C296,131.1,294.2,134.8,290.5,134.8z"/>
<g id="XMLID_29_">
	<g id="XMLID_31_">
		<path class="st0" d="M157.3,194.9c-2.6-0.4-5.4-0.6-8.1-0.6c-2.7,0-5.3,0.2-7.9,0.5l-0.2-18.2l16-0.1L157.3,194.9z"/>
	</g>
</g>
<path class="st0" d="M211.8,198.8c0,14.1-7.9,26.3-19.5,32.2c-3.1,15.5-21.2,38.4-43.2,38.4c-21.9,0-40-22.8-43.1-38.2
	c-11.7-5.9-19.8-18.1-19.8-32.4c0-4.4,3.6-8,8-8c4.4,0,8,3.6,8,8c0,6,2.6,11.5,6.7,15.1c2.3,2,5,3.5,8.1,4.3c1.5,0.4,3,0.6,4.5,0.6
	c10.7,0,19.7-9.2,19.7-20h0.1l0-4c2.5-0.3,5.2-0.5,7.9-0.5c2.8,0,5.5,0.2,8.1,0.6l0,4.9h-0.1c0.5,10.6,8.9,19.1,19.3,19.1
	c1.6,0,3.2-0.2,4.7-0.6c3.1-0.8,5.8-2.3,8.1-4.4c4-3.6,6.5-9,6.5-15c0-4.4,3.6-8,8-8C208.2,190.9,211.8,194.4,211.8,198.8z"/>
<ellipse id="XMLID_28_" class="st5" cx="149.1" cy="184" rx="18.7" ry="19.2"/>
<g>
	<path class="st6" d="M97.4,229.3c-0.1,0.4-0.2,0.8-0.3,1.2c-0.1,0.4-0.2,0.8-0.3,1.2c0.7,0.1,1.4,0.3,2.1,0.4
		c0.7,0.1,1.4,0.3,2.1,0.4c0.9,0.2,1.6,0.7,2,1.6c0.4,0.8,0.5,1.7,0.3,2.6c-0.3,1-0.8,1.6-1.6,2s-1.6,0.5-2.6,0.4
		c-0.7-0.1-1.3-0.3-2-0.4c-0.7-0.1-1.3-0.3-2-0.4c-0.4,1.6-0.8,3.3-1.2,4.9c1.6,0.2,3.3,0.5,4.9,0.8c1.4,0.4,2.2,1.2,2.4,2.3
		c0.2,1.1-0.1,2.2-0.9,3.1c-0.8,1-1.9,1.3-3.3,1.1c-2.4-0.5-4.8-0.8-7.3-1c-1.1-0.1-2-0.6-2.7-1.4s-0.8-1.8-0.6-2.9
		c0.8-3.2,1.6-6.5,2.4-9.7c0.8-3.3,1.6-6.5,2.4-9.7c-0.1-0.9,0.2-1.8,0.7-2.5s1.4-1.1,2.5-1.1c3.2,0.1,6.3,0.6,9.4,1.6
		c1.4,0.5,2.1,1.3,2.3,2.5s-0.1,2.2-0.9,3.1s-1.8,1.2-3.3,0.8C100.5,229.8,98.9,229.5,97.4,229.3z"/>
	<path class="st7" d="M137,247.7c-0.1,1.5-0.8,2.5-2.1,3.1s-2.5,0.4-3.6-0.7c-3.5-3.9-7.2-7.6-11.1-11c0.8,4.2,1.9,8.3,3.2,12.3
		c0.4,1.4,0.1,2.5-0.8,3.2c-0.9,0.8-1.9,1-3.1,0.9c-1.2-0.2-2.1-0.9-2.6-2.3c-2.1-6.8-3.7-13.8-4.6-20.8c-0.1-0.9,0-1.8,0.4-2.6
		c0.4-0.8,1-1.3,2-1.6c0.1,0,0.2-0.1,0.4-0.1c0.7-0.2,1.5,0,2.3,0.5c4.7,3,9.1,6.5,13,10.5c0-1,0-2,0-3c0-2.4,0-4.7,0-7.1
		c0.1-1.5,0.7-2.4,1.7-2.9s2.2-0.5,3.3,0c1.1,0.5,1.7,1.5,1.8,2.9C137,235.3,137,241.5,137,247.7z"/>
	<path class="st8" d="M163.9,227.2c0.5,1.1,0.5,2.2,0,3.3c-0.5,1.1-1.5,1.7-2.9,1.9c-1.4,0.1-2.7,0.1-4.1,0.2
		c0.5,6,0.9,12.1,1.2,18.2c0,1.5-0.6,2.4-1.6,2.9c-1.1,0.5-2.2,0.5-3.3,0s-1.7-1.5-1.9-2.9c-0.3-6-0.7-11.9-1.2-17.9
		c-0.7,0-1.3,0.1-2,0.1c-0.7,0-1.3,0.1-2,0.1c-1.5,0-2.4-0.6-2.9-1.6s-0.5-2.2,0-3.3s1.5-1.7,2.9-1.9c4.6-0.2,9.1-0.4,13.7-0.6
		c0.4,0,0.7,0,1.1,0C162.5,225.6,163.4,226.2,163.9,227.2z"/>
	<path class="st9" d="M176.8,229.2c0,0.4,0,0.8,0,1.2c0,0.4,0,0.8,0,1.2c0.7,0,1.4-0.1,2.1-0.1c0.7,0,1.4,0,2.1-0.1
		c0.9,0,1.7,0.4,2.3,1.1c0.6,0.7,0.9,1.5,0.9,2.4c-0.1,1-0.4,1.8-1.1,2.3c-0.7,0.6-1.5,0.9-2.4,0.9c-0.7,0-1.4,0.1-2,0.1
		c-0.7,0-1.4,0.1-2,0.1c0,1.7,0,3.4,0,5.1c1.6-0.2,3.3-0.3,4.9-0.3c1.5,0.1,2.4,0.6,2.9,1.7c0.4,1.1,0.4,2.2-0.1,3.3
		c-0.5,1.1-1.5,1.7-3,1.8c-2.5,0.1-4.9,0.3-7.3,0.7c-1.1,0.2-2.1-0.1-2.9-0.7c-0.8-0.6-1.2-1.5-1.3-2.7c0-3.3,0.1-6.7,0.1-10
		c0-3.3,0.1-6.7,0.1-10c-0.3-0.9-0.2-1.7,0.1-2.6s1.1-1.4,2.2-1.6c3.1-0.6,6.3-0.8,9.5-0.6c1.4,0.2,2.4,0.8,2.8,1.9
		c0.4,1.1,0.4,2.2-0.1,3.3s-1.5,1.6-3,1.6C180,229,178.3,229.1,176.8,229.2z"/>
	<path class="st10" d="M212.5,249c0,1-0.4,1.8-1,2.4c-0.7,0.7-1.5,1-2.4,1c-0.9,0-1.7-0.4-2.4-1c-2.1-1.7-4.3-3.4-6.5-5.1
		c0,1.2,0,2.4,0,3.6c-0.1,1.5-0.7,2.4-1.8,2.9s-2.2,0.5-3.3,0c-1.1-0.5-1.7-1.5-1.7-2.9c0.1-7.1,0.1-14.2-0.1-21.2
		c0-1.5,0.6-2.4,1.7-2.9s2.2-0.5,3.3,0c1.5-0.5,3-0.7,4.6-0.8c1.6,0,3,0.3,4.3,1c2.7,1.7,4.2,4.1,4.5,7.2c0,4.1-1.7,7.3-5,9.5
		c1.6,1.3,3.3,2.5,4.8,3.9C212.2,247.3,212.6,248,212.5,249z M203.4,232c-1-0.1-2.1,0-3.2,0.4c0,2.1,0,4.1,0.1,6.1c0,0,0.1,0,0.1,0
		c0,0,0,0,0,0c1.1-0.4,2.1-0.9,3-1.5s1.4-1.6,1.5-2.7C204.9,232.9,204.4,232.1,203.4,232z"/>
</g>
</svg>
