<?xml version="1.0" encoding="utf-8"?>
<!-- Generator: Adobe Illustrator 26.1.0, SVG Export Plug-In . SVG Version: 6.00 Build 0)  -->
<svg version="1.1" id="Layer_1" xmlns="http://www.w3.org/2000/svg" xmlns:xlink="http://www.w3.org/1999/xlink" x="0px" y="0px"
	 viewBox="0 0 297.7 277.8" style="enable-background:new 0 0 297.7 277.8;" xml:space="preserve">
<style type="text/css">
	.st0{fill:#1D2228;}
	.st1{fill:url(#XMLID_00000083089560864087401110000010187325304224206220_);}
	.st2{fill:url(#XMLID_00000063601249913920273350000011385621954708587393_);}
	.st3{fill:none;stroke:#1D2228;stroke-width:16;stroke-linecap:round;stroke-linejoin:round;stroke-miterlimit:10;}
	.st4{fill:url(#XMLID_00000007426853914782774040000009801608109727580851_);}
	.st5{fill:#ED1C24;}
</style>
<path class="st0" d="M291.7,228.4c-2,5.2-8.3,19.7-24.1,26.7c-9.4,4.2-17.8,4.7-17.8,4.7v-125c6.5,0,12.9,0,19.4,0
	c1.9,18.7,6.8,31.4,11,39.6c5.4,10.6,7.2,15.2,11,25.3C293.9,207.2,293,225.1,291.7,228.4z"/>
<g id="Layer_3">
	<g id="XMLID_26_">
		<g id="XMLID_35_">
			
				<linearGradient id="XMLID_00000176729637572931747780000012049453794812357760_" gradientUnits="userSpaceOnUse" x1="148.8" y1="762.8" x2="148.8" y2="588.8" gradientTransform="matrix(1 0 0 1 0 -488)">
				<stop  offset="0" style="stop-color:#E6E6E6"/>
				<stop  offset="1" style="stop-color:#A8A8A8"/>
			</linearGradient>
			<path id="XMLID_37_" style="fill:url(#XMLID_00000176729637572931747780000012049453794812357760_);" d="M249.8,121.1v122.3v11.7
				c0,11.1-9,19.7-20,19.7h-162c-11,0-20-8.6-20-19.7v-134c0-11,9-20.3,20-20.3h162C240.9,100.8,249.8,110.1,249.8,121.1z"/>
			
				<linearGradient id="XMLID_00000165209295998373897890000004685504950985900193_" gradientUnits="userSpaceOnUse" x1="148.9" y1="642.8" x2="148.9" y2="513.95" gradientTransform="matrix(1 0 0 1 0 -488)">
				<stop  offset="0" style="stop-color:#0071BC;stop-opacity:0.2"/>
				<stop  offset="0.3692" style="stop-color:#F15A24"/>
			</linearGradient>
			<path id="XMLID_36_" style="fill:url(#XMLID_00000165209295998373897890000004685504950985900193_);" d="M257.4,133.8h-7.5v21
				h-202v-21h-7.5l7.5-7.6l24.9-25.1l0.3-0.3L146.3,27c1.4-1.4,3.6-1.4,5,0l73.3,73.8l0.3,0.3l24.9,25.1L257.4,133.8z"/>
		</g>
	</g>
</g>
<g>
	<path class="st3" d="M219.1,171.8l-16.4-32.6c-1.8-3.6-4.8-3.6-6.7-0.1l-17.4,32.6"/>
</g>
<g>
	<path class="st3" d="M118.9,172.4l-16.4-32.6c-1.8-3.6-4.8-3.6-6.7-0.1l-17.4,32.6"/>
</g>
<path class="st0" d="M5.9,228.4c2,5.2,8.3,19.7,24.1,26.7c9.4,4.2,17.8,4.7,17.8,4.7v-125c-6.5,0-12.9,0-19.4,0
	c-1.9,18.7-6.8,31.4-11,39.6c-5.4,10.6-7.2,15.2-11,25.3C3.7,207.2,4.6,225.1,5.9,228.4z"/>
<linearGradient id="XMLID_00000161592185986587960360000008606182813807285172_" gradientUnits="userSpaceOnUse" x1="148.8" y1="622.8" x2="148.8" y2="490.9622" gradientTransform="matrix(1 0 0 1 0 -488)">
	<stop  offset="0" style="stop-color:#ED1C24"/>
	<stop  offset="0.7921" style="stop-color:#F15A24"/>
</linearGradient>
<path id="XMLID_27_" style="fill:url(#XMLID_00000161592185986587960360000008606182813807285172_);" d="M290.5,134.8H7.1
	c-3.7,0-5.5-3.6-2.9-5.9L145.9,4c1.6-1.4,4.2-1.4,5.8,0.1l141.7,124.8C296,131.1,294.2,134.8,290.5,134.8z"/>
<g id="XMLID_29_">
	<g id="XMLID_31_">
		<path class="st0" d="M211.8,210.8c0,19.9-15.8,36-35.3,36c-0.4,0-0.8,0-1.2,0c-6.2,11.6-15.6,18.1-26.2,18.1
			c-10.6,0-20-6.5-26.2-18.1c-0.5,0-0.9,0-1.4,0c-19.5,0-35.3-16.1-35.3-36c0-4.4,3.6-8,8-8s8,3.6,8,8c0,9.4,6.3,17.3,14.8,19.4
			c1.5,0.4,3,0.6,4.5,0.6c10.7,0,19.7-9.2,19.7-20h0.1l-0.2-22.2l16-0.1l0.2,23.3h-0.1c0.5,10.6,8.9,19.1,19.3,19.1
			c1.6,0,3.2-0.2,4.7-0.6c8.4-2.2,14.6-10,14.6-19.4c0-4.4,3.6-8,8-8S211.8,206.4,211.8,210.8z"/>
	</g>
</g>
<ellipse id="XMLID_28_" class="st5" cx="149.1" cy="193" rx="18.7" ry="19.2"/>
</svg>
